<svg viewBox="0 0 320 320" xmlns="http://www.w3.org/2000/svg">
    <circle cx="160" cy="160" fill="#6989AF" r="98" />
    <circle cx="120.8" cy="130.6" fill="#466889" r="19.6" />
    <path d="M169.8 248.2c-54.1 0-98-43.9-98-98 0-24.6 9.1-47 24-64.2C75.1 104 62 130.4 62 160c0 54.1 43.9 98 98 98 29.6 0 56-13.1 74-33.8-17.2 14.9-39.6 24-64.2 24z" fill="#7E9FBC" />
    <path d="M160 260c-55.1 0-100-44.9-100-100S104.8 60 160 60c55.1 0 100 44.8 100 100 0 55.1-44.9 100-100 100zm0-196.1c-53 0-96.1 43.1-96.1 96.1 0 53 43.1 96.1 96.1 96.1 53 0 96.1-43.1 96.1-96.1-.1-53-43.2-96.1-96.1-96.1z" />
    <path d="M120.8 152.1c-11.9 0-21.6-9.7-21.6-21.6s9.7-21.6 21.6-21.6 21.6 9.7 21.6 21.6c0 4.3-1.3 8.4-3.6 12l-3.3-2.2c1.9-2.9 3-6.3 3-9.8 0-9.7-7.9-17.6-17.6-17.6s-17.6 7.9-17.6 17.6 7.9 17.6 17.6 17.6c2.7 0 5.3-.7 7.9-1.9l1.8 3.5c-3.3 1.6-6.5 2.4-9.8 2.4z" />
    <circle cx="189.4" cy="111" fill="#466889" r="9.8" />
    <path d="M189.4 122.7c-6.5 0-11.8-5.3-11.8-11.8s5.3-11.8 11.8-11.8 11.8 5.3 11.8 11.8h-3.9c0-4.3-3.5-7.8-7.8-7.8s-7.8 3.5-7.8 7.8 3.5 7.8 7.8 7.8v4z" />
    <path d="M197.7 119.3l-2.8-2.8c3.1-3.1 3.1-8 0-11.1-3-3.1-8-3.1-11.1 0-3.1 3.1-3.1 8 0 11.1l-2.8 2.8c-4.6-4.6-4.6-12 0-16.6 4.6-4.6 12-4.6 16.6 0 4.7 4.5 4.7 12 .1 16.6z" />
    <circle cx="189.4" cy="189.4" fill="#466889" r="9.8" />
    <path d="M189.4 201.1c-6.5 0-11.8-5.3-11.8-11.8 0-6.5 5.3-11.8 11.8-11.8v3.9c-4.3 0-7.8 3.5-7.8 7.8s3.5 7.8 7.8 7.8 7.8-3.5 7.8-7.8h3.9c0 6.7-5.2 11.9-11.7 11.9z" />
    <path d="M189.4 201.1c-3 0-6-1.1-8.3-3.4-4.6-4.6-4.6-12.1 0-16.6 4.6-4.6 12-4.6 16.6 0l-2.8 2.8c-3.1-3.1-8-3.1-11.1 0-3.1 3.1-3.1 8 0 11.1 3 3.1 8 3.1 11.1 0l2.8 2.8c-2.3 2.2-5.3 3.3-8.3 3.3z" />
    <circle cx="233.5" cy="155.1" fill="#466889" r="4.9" />
    <path d="M233.5 161.9c-3.8 0-6.9-3.1-6.9-6.9h3.9c0 1.6 1.3 2.9 2.9 2.9s2.9-1.3 2.9-2.9c0-1.6-1.3-2.9-2.9-2.9v-3.9c3.8 0 6.9 3.1 6.9 6.9s-3 6.8-6.8 6.8z" />
    <circle cx="145.3" cy="76.7" fill="#466889" r="4.9" />
    <path d="M145.3 83.5c-3.8 0-6.9-3.1-6.9-6.9s3.1-6.9 6.9-6.9c3.8 0 6.9 3.1 6.9 6.9s-3.1 6.9-6.9 6.9zm0-9.8c-1.6 0-2.9 1.3-2.9 2.9 0 1.6 1.3 2.9 2.9 2.9 1.6 0 2.9-1.3 2.9-2.9 0-1.6-1.3-2.9-2.9-2.9z" />
    <circle cx="145.3" cy="174.7" fill="#466889" r="4.9" />
    <path d="M145.3 181.5v-3.9c1.6 0 2.9-1.3 2.9-2.9 0-1.6-1.3-2.9-2.9-2.9-1.6 0-2.9 1.3-2.9 2.9h-3.9c0-3.8 3.1-6.9 6.9-6.9 3.8 0 6.9 3.1 6.9 6.9s-3.2 6.8-7 6.8z" />
    <circle cx="96.3" cy="194.3" fill="#466889" r="4.9" />
    <path d="M96.3 201.1c-3.8 0-6.9-3.1-6.9-6.9 0-3.8 3.1-6.9 6.9-6.9v3.9c-1.6 0-2.9 1.3-2.9 2.9 0 1.6 1.3 2.9 2.9 2.9 1.6 0 2.9-1.3 2.9-2.9h3.9c0 4-3.1 7-6.8 7z" />
    <circle cx="155.1" cy="223.7" fill="#466889" r="14.7" />
    <path d="M155.1 240.4c-9.2 0-16.7-7.5-16.7-16.7s7.5-16.7 16.7-16.7v3.9c-7 0-12.7 5.7-12.7 12.7s5.7 12.7 12.7 12.7 12.7-5.7 12.7-12.7h3.9c0 9.3-7.4 16.8-16.6 16.8z" />
    <path d="M155.1 240.4c-1.1 0-2.2-.1-3.3-.3-4.4-.9-8.1-3.4-10.6-7.1-5.1-7.6-3-18 4.6-23.1 3.7-2.5 8.1-3.4 12.5-2.5 4.4.9 8.1 3.4 10.6 7.1l-3.3 2.2c-1.9-2.8-4.8-4.8-8.1-5.4-3.3-.6-6.7 0-9.6 1.9-5.8 3.9-7.4 11.8-3.5 17.7 1.9 2.8 4.8 4.8 8.1 5.4 3.3.7 6.7 0 9.6-1.9l2.2 3.3c-2.8 1.7-5.9 2.7-9.2 2.7z" />
</svg>
